<svg width="29" height="29" viewBox="0 0 29 29" fill="none" xmlns="http://www.w3.org/2000/svg">
<g clip-path="url(#clip0)">
<path d="M14.3368 13.9281C16.2502 13.9281 17.9069 13.2418 19.261 11.8878C20.6146 10.534 21.3011 8.87753 21.3011 6.96384C21.3011 5.05081 20.6148 3.39412 19.2607 2.03987C17.9067 0.686281 16.25 0 14.3368 0C12.4231 0 10.7666 0.686281 9.4128 2.04009C8.05899 3.3939 7.37249 5.05059 7.37249 6.96384C7.37249 8.87753 8.05899 10.5342 9.4128 11.888C10.7671 13.2416 12.4237 13.9281 14.3368 13.9281ZM10.6111 3.23816C11.6499 2.19936 12.8685 1.69441 14.3368 1.69441C15.8049 1.69441 17.0237 2.19936 18.0627 3.23816C19.1015 4.27718 19.6066 5.49598 19.6066 6.96384C19.6066 8.43214 19.1015 9.65073 18.0627 10.6897C17.0237 11.7288 15.8049 12.2337 14.3368 12.2337C12.8689 12.2337 11.6503 11.7285 10.6111 10.6897C9.57207 9.65095 9.0669 8.43214 9.0669 6.96384C9.0669 5.49598 9.57207 4.27718 10.6111 3.23816Z" fill="black" fill-opacity="0.6"/>
<path d="M26.5224 22.2336C26.4833 21.6702 26.4044 21.0557 26.2881 20.4067C26.1708 19.7528 26.0196 19.1347 25.8388 18.5697C25.6517 17.9858 25.3978 17.4092 25.0834 16.8566C24.7576 16.283 24.3746 15.7836 23.9449 15.3726C23.4956 14.9427 22.9454 14.597 22.3092 14.3448C21.6752 14.094 20.9726 13.967 20.221 13.967C19.9258 13.967 19.6404 14.0881 19.0891 14.447C18.7498 14.6682 18.353 14.9241 17.91 15.2072C17.5313 15.4485 17.0181 15.6746 16.3844 15.8793C15.766 16.0794 15.1382 16.1809 14.5183 16.1809C13.8989 16.1809 13.2711 16.0794 12.6523 15.8793C12.0192 15.6748 11.5058 15.4487 11.1277 15.2074C10.689 14.927 10.2919 14.6711 9.94753 14.4468C9.3967 14.0878 9.11124 13.9667 8.81608 13.9667C8.06428 13.9667 7.3619 14.094 6.72812 14.3451C6.09236 14.5968 5.54197 14.9424 5.09217 15.3728C4.66244 15.784 4.27948 16.2832 3.95388 16.8566C3.63997 17.4092 3.38584 17.9856 3.19877 18.57C3.0181 19.1349 2.86699 19.7528 2.74964 20.4067C2.63316 21.0548 2.55441 21.6696 2.51536 22.2343C2.47698 22.7865 2.45756 23.3611 2.45756 23.9417C2.45756 25.4511 2.93736 26.673 3.88351 27.5741C4.81796 28.4633 6.05419 28.9142 7.55801 28.9142H21.4804C22.9838 28.9142 24.22 28.4633 25.1547 27.5741C26.101 26.6736 26.5808 25.4513 26.5808 23.9415C26.5806 23.3589 26.561 22.7843 26.5224 22.2336ZM23.9864 26.3465C23.3689 26.9341 22.5492 27.2198 21.4802 27.2198H7.55801C6.48877 27.2198 5.66903 26.9341 5.0518 26.3467C4.44626 25.7703 4.15198 24.9834 4.15198 23.9417C4.15198 23.3999 4.16985 22.865 4.20558 22.3514C4.24044 21.8476 4.31169 21.2941 4.41736 20.706C4.5217 20.1252 4.6545 19.5801 4.81245 19.0866C4.964 18.6134 5.1707 18.1449 5.42703 17.6935C5.67168 17.2634 5.95316 16.8943 6.26376 16.5969C6.55429 16.3188 6.92048 16.0911 7.35197 15.9204C7.75104 15.7624 8.19951 15.6759 8.68637 15.6629C8.74571 15.6945 8.85138 15.7547 9.02256 15.8663C9.37089 16.0933 9.77238 16.3523 10.2162 16.6358C10.7165 16.9547 11.3611 17.2428 12.1312 17.4915C12.9185 17.746 13.7215 17.8753 14.5185 17.8753C15.3156 17.8753 16.1188 17.746 16.9056 17.4917C17.6764 17.2426 18.3208 16.9547 18.8218 16.6353C19.276 16.345 19.6662 16.0935 20.0145 15.8663C20.1857 15.7549 20.2914 15.6945 20.3507 15.6629C20.8378 15.6759 21.2863 15.7624 21.6856 15.9204C22.1168 16.0911 22.483 16.319 22.7735 16.5969C23.0841 16.8941 23.3656 17.2631 23.6103 17.6937C23.8668 18.1449 24.0737 18.6136 24.2251 19.0864C24.3832 19.5805 24.5163 20.1254 24.6204 20.7058C24.7258 21.295 24.7973 21.8487 24.8322 22.3517V22.3521C24.8681 22.8637 24.8862 23.3984 24.8864 23.9417C24.8862 24.9836 24.5919 25.7703 23.9864 26.3465Z" fill="black" fill-opacity="0.6"/>
</g>
<defs>
<clipPath id="clip0">
<rect width="28.9142" height="28.9143" fill="white" transform="translate(0.0856934)"/>
</clipPath>
</defs>
</svg>
