<svg width="32" height="29" viewBox="0 0 37 29" fill="none" xmlns="http://www.w3.org/2000/svg">
<path d="M28.9817 5.96567L18.6307 13.755C18.3379 13.9662 17.9413 13.9662 17.6485 13.755L7.30129 5.96567C7.02868 5.76049 6.64002 5.8135 6.43332 6.08399C6.22654 6.35449 6.27996 6.74014 6.55257 6.94525L16.901 14.734C17.6373 15.2737 18.6421 15.2737 19.3784 14.734L29.73 6.94525C29.861 6.84673 29.9471 6.70053 29.9694 6.53893C29.9917 6.37732 29.9483 6.21355 29.8488 6.08371C29.6421 5.81371 29.2541 5.76092 28.9817 5.96567Z" fill="black" fill-opacity="0.6"/>
<path d="M1.23572 25.8178V3.61426C1.23572 2.50969 2.13115 1.61426 3.23572 1.61426H33.0468C34.1513 1.61426 35.0468 2.50969 35.0468 3.61426V25.8178C35.0468 26.9224 34.1513 27.8178 33.0468 27.8178H3.23572C2.13115 27.8178 1.23572 26.9224 1.23572 25.8178Z" stroke="black" stroke-opacity="0.6" stroke-width="2"/>
</svg>
