<svg width="26" height="26" viewBox="0 0 26 26" fill="none" xmlns="http://www.w3.org/2000/svg">
<path fill-rule="evenodd" clip-rule="evenodd" d="M24.0994 10.0671L14.5081 1.91147C13.6766 1.20435 12.3235 1.20435 11.4919 1.91147L1.90057 10.0672C1.91716 10.1315 1.92593 10.1984 1.92593 10.2673V23.4873C1.92593 23.909 2.30389 24.2521 2.76852 24.2521H23.2315C23.6961 24.2521 24.0741 23.909 24.0741 23.4873V10.2673C24.0741 10.1984 24.0829 10.1314 24.0994 10.0671ZM0.0115273 10.1317C-0.0310764 9.91841 0.0444142 9.69143 0.237999 9.52684L10.3429 0.934384C11.808 -0.311461 14.192 -0.311461 15.6571 0.934384L25.762 9.5268C25.9556 9.69141 26.0311 9.9184 25.9885 10.1316C25.9961 10.1758 26 10.2212 26 10.2673V23.4873C26 24.8728 24.7581 26 23.2315 26H2.76852C1.24198 26 0 24.8729 0 23.4873V10.2673C0 10.2212 0.00393859 10.1759 0.0115273 10.1317Z" fill="black" fill-opacity="0.6"/>
</svg>
